<svg width="437" height="36" viewBox="0 0 437 36" fill="none" xmlns="http://www.w3.org/2000/svg">
<path d="M48.9609 19.5664C48.9609 17.5977 49.4219 16.0273 50.3438 14.8555C51.2734 13.6758 52.5039 13.0859 54.0352 13.0859C55.4805 13.0859 56.6172 13.5898 57.4453 14.5977L57.5742 13.3203H60.1406V25.6133C60.1406 27.2773 59.6211 28.5898 58.582 29.5508C57.5508 30.5117 56.1562 30.9922 54.3984 30.9922C53.4688 30.9922 52.5586 30.7969 51.668 30.4062C50.7852 30.0234 50.1133 29.5195 49.6523 28.8945L51 27.1836C51.875 28.2227 52.9531 28.7422 54.2344 28.7422C55.1797 28.7422 55.9258 28.4844 56.4727 27.9688C57.0195 27.4609 57.293 26.7109 57.293 25.7188V24.8633C56.4727 25.7773 55.3789 26.2344 54.0117 26.2344C52.5273 26.2344 51.3125 25.6445 50.3672 24.4648C49.4297 23.2852 48.9609 21.6523 48.9609 19.5664ZM51.7969 19.8125C51.7969 21.0859 52.0547 22.0898 52.5703 22.8242C53.0938 23.5508 53.8164 23.9141 54.7383 23.9141C55.8867 23.9141 56.7383 23.4219 57.293 22.4375V16.8594C56.7539 15.8984 55.9102 15.418 54.7617 15.418C53.8242 15.418 53.0938 15.7891 52.5703 16.5312C52.0547 17.2734 51.7969 18.3672 51.7969 19.8125ZM66.1055 26H63.2578V13.3203H66.1055V26ZM63.082 10.0273C63.082 9.58984 63.2188 9.22656 63.4922 8.9375C63.7734 8.64844 64.1719 8.50391 64.6875 8.50391C65.2031 8.50391 65.6016 8.64844 65.8828 8.9375C66.1641 9.22656 66.3047 9.58984 66.3047 10.0273C66.3047 10.457 66.1641 10.8164 65.8828 11.1055C65.6016 11.3867 65.2031 11.5273 64.6875 11.5273C64.1719 11.5273 63.7734 11.3867 63.4922 11.1055C63.2188 10.8164 63.082 10.457 63.082 10.0273ZM72.7852 10.2383V13.3203H75.0234V15.4297H72.7852V22.5078C72.7852 22.9922 72.8789 23.3438 73.0664 23.5625C73.2617 23.7734 73.6055 23.8789 74.0977 23.8789C74.4258 23.8789 74.7578 23.8398 75.0938 23.7617V25.9648C74.4453 26.1445 73.8203 26.2344 73.2188 26.2344C71.0312 26.2344 69.9375 25.0273 69.9375 22.6133V15.4297H67.8516V13.3203H69.9375V10.2383H72.7852ZM80.0156 14.7031C80.9453 13.625 82.1211 13.0859 83.543 13.0859C86.2461 13.0859 87.6172 14.6289 87.6562 17.7148V26H84.8086V17.8203C84.8086 16.9453 84.6172 16.3281 84.2344 15.9688C83.8594 15.6016 83.3047 15.418 82.5703 15.418C81.4297 15.418 80.5781 15.9258 80.0156 16.9414V26H77.168V8H80.0156V14.7031ZM98.2266 24.7578C97.3906 25.7422 96.2031 26.2344 94.6641 26.2344C93.2891 26.2344 92.2461 25.832 91.5352 25.0273C90.832 24.2227 90.4805 23.0586 90.4805 21.5352V13.3203H93.3281V21.5C93.3281 23.1094 93.9961 23.9141 95.332 23.9141C96.7148 23.9141 97.6484 23.418 98.1328 22.4258V13.3203H100.98V26H98.2969L98.2266 24.7578ZM115.008 19.7891C115.008 21.7578 114.566 23.3242 113.684 24.4883C112.809 25.6523 111.602 26.2344 110.062 26.2344C108.578 26.2344 107.422 25.6992 106.594 24.6289L106.453 26H103.875V8H106.723V14.5391C107.543 13.5703 108.648 13.0859 110.039 13.0859C111.586 13.0859 112.801 13.6602 113.684 14.8086C114.566 15.957 115.008 17.5625 115.008 19.625V19.7891ZM112.16 19.543C112.16 18.168 111.918 17.1367 111.434 16.4492C110.949 15.7617 110.246 15.418 109.324 15.418C108.09 15.418 107.223 15.957 106.723 17.0352V22.2617C107.23 23.3633 108.105 23.9141 109.348 23.9141C110.238 23.9141 110.926 23.582 111.41 22.918C111.895 22.2539 112.145 21.25 112.16 19.9062V19.543ZM134.508 19.7891C134.508 21.7578 134.066 23.3242 133.184 24.4883C132.309 25.6523 131.102 26.2344 129.562 26.2344C128.078 26.2344 126.922 25.6992 126.094 24.6289L125.953 26H123.375V8H126.223V14.5391C127.043 13.5703 128.148 13.0859 129.539 13.0859C131.086 13.0859 132.301 13.6602 133.184 14.8086C134.066 15.957 134.508 17.5625 134.508 19.625V19.7891ZM131.66 19.543C131.66 18.168 131.418 17.1367 130.934 16.4492C130.449 15.7617 129.746 15.418 128.824 15.418C127.59 15.418 126.723 15.957 126.223 17.0352V22.2617C126.73 23.3633 127.605 23.9141 128.848 23.9141C129.738 23.9141 130.426 23.582 130.91 22.918C131.395 22.2539 131.645 21.25 131.66 19.9062V19.543ZM136.371 19.543C136.371 18.3008 136.617 17.1836 137.109 16.1914C137.602 15.1914 138.293 14.4258 139.184 13.8945C140.074 13.3555 141.098 13.0859 142.254 13.0859C143.965 13.0859 145.352 13.6367 146.414 14.7383C147.484 15.8398 148.062 17.3008 148.148 19.1211L148.16 19.7891C148.16 21.0391 147.918 22.1562 147.434 23.1406C146.957 24.125 146.27 24.8867 145.371 25.4258C144.48 25.9648 143.449 26.2344 142.277 26.2344C140.488 26.2344 139.055 25.6406 137.977 24.4531C136.906 23.2578 136.371 21.668 136.371 19.6836V19.543ZM139.219 19.7891C139.219 21.0938 139.488 22.1172 140.027 22.8594C140.566 23.5938 141.316 23.9609 142.277 23.9609C143.238 23.9609 143.984 23.5859 144.516 22.8359C145.055 22.0859 145.324 20.9883 145.324 19.543C145.324 18.2617 145.047 17.2461 144.492 16.4961C143.945 15.7461 143.199 15.3711 142.254 15.3711C141.324 15.3711 140.586 15.7422 140.039 16.4844C139.492 17.2188 139.219 18.3203 139.219 19.7891ZM154.863 17.4922L157.277 13.3203H160.441L156.562 19.5664L160.57 26H157.43L154.898 21.6641L152.379 26H149.215L153.223 19.5664L149.355 13.3203H152.496L154.863 17.4922ZM162.785 29.8438L161.25 28.9297C161.703 28.2188 162.012 27.5977 162.176 27.0664C162.348 26.543 162.438 26.0078 162.445 25.4609V23.2461H165.012L165 25.2969C164.992 26.125 164.781 26.9531 164.367 27.7812C163.961 28.6172 163.434 29.3047 162.785 29.8438Z" fill="#737380"/>
<path d="M181.207 26C181.082 25.7578 180.973 25.3633 180.879 24.8164C179.973 25.7617 178.863 26.2344 177.551 26.2344C176.277 26.2344 175.238 25.8711 174.434 25.1445C173.629 24.418 173.227 23.5195 173.227 22.4492C173.227 21.0977 173.727 20.0625 174.727 19.3438C175.734 18.6172 177.172 18.2539 179.039 18.2539H180.785V17.4219C180.785 16.7656 180.602 16.2422 180.234 15.8516C179.867 15.4531 179.309 15.2539 178.559 15.2539C177.91 15.2539 177.379 15.418 176.965 15.7461C176.551 16.0664 176.344 16.4766 176.344 16.9766H173.496C173.496 16.2812 173.727 15.6328 174.188 15.0312C174.648 14.4219 175.273 13.9453 176.062 13.6016C176.859 13.2578 177.746 13.0859 178.723 13.0859C180.207 13.0859 181.391 13.4609 182.273 14.2109C183.156 14.9531 183.609 16 183.633 17.3516V23.0703C183.633 24.2109 183.793 25.1211 184.113 25.8008V26H181.207ZM178.078 23.9492C178.641 23.9492 179.168 23.8125 179.66 23.5391C180.16 23.2656 180.535 22.8984 180.785 22.4375V20.0469H179.25C178.195 20.0469 177.402 20.2305 176.871 20.5977C176.34 20.9648 176.074 21.4844 176.074 22.1562C176.074 22.7031 176.254 23.1406 176.613 23.4688C176.98 23.7891 177.469 23.9492 178.078 23.9492ZM196.16 10.2383V13.3203H198.398V15.4297H196.16V22.5078C196.16 22.9922 196.254 23.3438 196.441 23.5625C196.637 23.7734 196.98 23.8789 197.473 23.8789C197.801 23.8789 198.133 23.8398 198.469 23.7617V25.9648C197.82 26.1445 197.195 26.2344 196.594 26.2344C194.406 26.2344 193.312 25.0273 193.312 22.6133V15.4297H191.227V13.3203H193.312V10.2383H196.16ZM206.168 26.2344C204.363 26.2344 202.898 25.668 201.773 24.5352C200.656 23.3945 200.098 21.8789 200.098 19.9883V19.6367C200.098 18.3711 200.34 17.2422 200.824 16.25C201.316 15.25 202.004 14.4727 202.887 13.918C203.77 13.3633 204.754 13.0859 205.84 13.0859C207.566 13.0859 208.898 13.6367 209.836 14.7383C210.781 15.8398 211.254 17.3984 211.254 19.4141V20.5625H202.969C203.055 21.6094 203.402 22.4375 204.012 23.0469C204.629 23.6562 205.402 23.9609 206.332 23.9609C207.637 23.9609 208.699 23.4336 209.52 22.3789L211.055 23.8438C210.547 24.6016 209.867 25.1914 209.016 25.6133C208.172 26.0273 207.223 26.2344 206.168 26.2344ZM205.828 15.3711C205.047 15.3711 204.414 15.6445 203.93 16.1914C203.453 16.7383 203.148 17.5 203.016 18.4766H208.441V18.2656C208.379 17.3125 208.125 16.5938 207.68 16.1094C207.234 15.6172 206.617 15.3711 205.828 15.3711ZM218.684 23.9609C219.395 23.9609 219.984 23.7539 220.453 23.3398C220.922 22.9258 221.172 22.4141 221.203 21.8047H223.887C223.855 22.5938 223.609 23.332 223.148 24.0195C222.688 24.6992 222.062 25.2383 221.273 25.6367C220.484 26.0352 219.633 26.2344 218.719 26.2344C216.945 26.2344 215.539 25.6602 214.5 24.5117C213.461 23.3633 212.941 21.7773 212.941 19.7539V19.4609C212.941 17.5312 213.457 15.9883 214.488 14.832C215.52 13.668 216.926 13.0859 218.707 13.0859C220.215 13.0859 221.441 13.5273 222.387 14.4102C223.34 15.2852 223.84 16.4375 223.887 17.8672H221.203C221.172 17.1406 220.922 16.543 220.453 16.0742C219.992 15.6055 219.402 15.3711 218.684 15.3711C217.762 15.3711 217.051 15.707 216.551 16.3789C216.051 17.043 215.797 18.0547 215.789 19.4141V19.8711C215.789 21.2461 216.035 22.2734 216.527 22.9531C217.027 23.625 217.746 23.9609 218.684 23.9609ZM228.844 14.7031C229.773 13.625 230.949 13.0859 232.371 13.0859C235.074 13.0859 236.445 14.6289 236.484 17.7148V26H233.637V17.8203C233.637 16.9453 233.445 16.3281 233.062 15.9688C232.688 15.6016 232.133 15.418 231.398 15.418C230.258 15.418 229.406 15.9258 228.844 16.9414V26H225.996V8H228.844V14.7031ZM246.012 15.9219C245.637 15.8594 245.25 15.8281 244.852 15.8281C243.547 15.8281 242.668 16.3281 242.215 17.3281V26H239.367V13.3203H242.086L242.156 14.7383C242.844 13.6367 243.797 13.0859 245.016 13.0859C245.422 13.0859 245.758 13.1406 246.023 13.25L246.012 15.9219ZM253.16 26.2344C251.355 26.2344 249.891 25.668 248.766 24.5352C247.648 23.3945 247.09 21.8789 247.09 19.9883V19.6367C247.09 18.3711 247.332 17.2422 247.816 16.25C248.309 15.25 248.996 14.4727 249.879 13.918C250.762 13.3633 251.746 13.0859 252.832 13.0859C254.559 13.0859 255.891 13.6367 256.828 14.7383C257.773 15.8398 258.246 17.3984 258.246 19.4141V20.5625H249.961C250.047 21.6094 250.395 22.4375 251.004 23.0469C251.621 23.6562 252.395 23.9609 253.324 23.9609C254.629 23.9609 255.691 23.4336 256.512 22.3789L258.047 23.8438C257.539 24.6016 256.859 25.1914 256.008 25.6133C255.164 26.0273 254.215 26.2344 253.16 26.2344ZM252.82 15.3711C252.039 15.3711 251.406 15.6445 250.922 16.1914C250.445 16.7383 250.141 17.5 250.008 18.4766H255.434V18.2656C255.371 17.3125 255.117 16.5938 254.672 16.1094C254.227 15.6172 253.609 15.3711 252.82 15.3711ZM265.676 23.9609C266.387 23.9609 266.977 23.7539 267.445 23.3398C267.914 22.9258 268.164 22.4141 268.195 21.8047H270.879C270.848 22.5938 270.602 23.332 270.141 24.0195C269.68 24.6992 269.055 25.2383 268.266 25.6367C267.477 26.0352 266.625 26.2344 265.711 26.2344C263.938 26.2344 262.531 25.6602 261.492 24.5117C260.453 23.3633 259.934 21.7773 259.934 19.7539V19.4609C259.934 17.5312 260.449 15.9883 261.48 14.832C262.512 13.668 263.918 13.0859 265.699 13.0859C267.207 13.0859 268.434 13.5273 269.379 14.4102C270.332 15.2852 270.832 16.4375 270.879 17.8672H268.195C268.164 17.1406 267.914 16.543 267.445 16.0742C266.984 15.6055 266.395 15.3711 265.676 15.3711C264.754 15.3711 264.043 15.707 263.543 16.3789C263.043 17.043 262.789 18.0547 262.781 19.4141V19.8711C262.781 21.2461 263.027 22.2734 263.52 22.9531C264.02 23.625 264.738 23.9609 265.676 23.9609ZM279.668 15.9219C279.293 15.8594 278.906 15.8281 278.508 15.8281C277.203 15.8281 276.324 16.3281 275.871 17.3281V26H273.023V13.3203H275.742L275.812 14.7383C276.5 13.6367 277.453 13.0859 278.672 13.0859C279.078 13.0859 279.414 13.1406 279.68 13.25L279.668 15.9219ZM289.148 24.7578C288.312 25.7422 287.125 26.2344 285.586 26.2344C284.211 26.2344 283.168 25.832 282.457 25.0273C281.754 24.2227 281.402 23.0586 281.402 21.5352V13.3203H284.25V21.5C284.25 23.1094 284.918 23.9141 286.254 23.9141C287.637 23.9141 288.57 23.418 289.055 22.4258V13.3203H291.902V26H289.219L289.148 24.7578ZM297.832 26H294.984V13.3203H297.832V26ZM294.809 10.0273C294.809 9.58984 294.945 9.22656 295.219 8.9375C295.5 8.64844 295.898 8.50391 296.414 8.50391C296.93 8.50391 297.328 8.64844 297.609 8.9375C297.891 9.22656 298.031 9.58984 298.031 10.0273C298.031 10.457 297.891 10.8164 297.609 11.1055C297.328 11.3867 296.93 11.5273 296.414 11.5273C295.898 11.5273 295.5 11.3867 295.219 11.1055C294.945 10.8164 294.809 10.457 294.809 10.0273ZM304.512 10.2383V13.3203H306.75V15.4297H304.512V22.5078C304.512 22.9922 304.605 23.3438 304.793 23.5625C304.988 23.7734 305.332 23.8789 305.824 23.8789C306.152 23.8789 306.484 23.8398 306.82 23.7617V25.9648C306.172 26.1445 305.547 26.2344 304.945 26.2344C302.758 26.2344 301.664 25.0273 301.664 22.6133V15.4297H299.578V13.3203H301.664V10.2383H304.512ZM314.52 26.2344C312.715 26.2344 311.25 25.668 310.125 24.5352C309.008 23.3945 308.449 21.8789 308.449 19.9883V19.6367C308.449 18.3711 308.691 17.2422 309.176 16.25C309.668 15.25 310.355 14.4727 311.238 13.918C312.121 13.3633 313.105 13.0859 314.191 13.0859C315.918 13.0859 317.25 13.6367 318.188 14.7383C319.133 15.8398 319.605 17.3984 319.605 19.4141V20.5625H311.32C311.406 21.6094 311.754 22.4375 312.363 23.0469C312.98 23.6562 313.754 23.9609 314.684 23.9609C315.988 23.9609 317.051 23.4336 317.871 22.3789L319.406 23.8438C318.898 24.6016 318.219 25.1914 317.367 25.6133C316.523 26.0273 315.574 26.2344 314.52 26.2344ZM314.18 15.3711C313.398 15.3711 312.766 15.6445 312.281 16.1914C311.805 16.7383 311.5 17.5 311.367 18.4766H316.793V18.2656C316.73 17.3125 316.477 16.5938 316.031 16.1094C315.586 15.6172 314.969 15.3711 314.18 15.3711ZM328.465 15.9219C328.09 15.8594 327.703 15.8281 327.305 15.8281C326 15.8281 325.121 16.3281 324.668 17.3281V26H321.82V13.3203H324.539L324.609 14.7383C325.297 13.6367 326.25 13.0859 327.469 13.0859C327.875 13.0859 328.211 13.1406 328.477 13.25L328.465 15.9219ZM337.371 22.5547C337.371 22.0469 337.16 21.6602 336.738 21.3945C336.324 21.1289 335.633 20.8945 334.664 20.6914C333.695 20.4883 332.887 20.2305 332.238 19.918C330.816 19.2305 330.105 18.2344 330.105 16.9297C330.105 15.8359 330.566 14.9219 331.488 14.1875C332.41 13.4531 333.582 13.0859 335.004 13.0859C336.52 13.0859 337.742 13.4609 338.672 14.2109C339.609 14.9609 340.078 15.9336 340.078 17.1289H337.23C337.23 16.582 337.027 16.1289 336.621 15.7695C336.215 15.4023 335.676 15.2188 335.004 15.2188C334.379 15.2188 333.867 15.3633 333.469 15.6523C333.078 15.9414 332.883 16.3281 332.883 16.8125C332.883 17.25 333.066 17.5898 333.434 17.832C333.801 18.0742 334.543 18.3203 335.66 18.5703C336.777 18.8125 337.652 19.1055 338.285 19.4492C338.926 19.7852 339.398 20.1914 339.703 20.668C340.016 21.1445 340.172 21.7227 340.172 22.4023C340.172 23.543 339.699 24.4688 338.754 25.1797C337.809 25.8828 336.57 26.2344 335.039 26.2344C334 26.2344 333.074 26.0469 332.262 25.6719C331.449 25.2969 330.816 24.7812 330.363 24.125C329.91 23.4688 329.684 22.7617 329.684 22.0039H332.449C332.488 22.6758 332.742 23.1953 333.211 23.5625C333.68 23.9219 334.301 24.1016 335.074 24.1016C335.824 24.1016 336.395 23.9609 336.785 23.6797C337.176 23.3906 337.371 23.0156 337.371 22.5547ZM355.746 22.5547C355.746 22.0469 355.535 21.6602 355.113 21.3945C354.699 21.1289 354.008 20.8945 353.039 20.6914C352.07 20.4883 351.262 20.2305 350.613 19.918C349.191 19.2305 348.48 18.2344 348.48 16.9297C348.48 15.8359 348.941 14.9219 349.863 14.1875C350.785 13.4531 351.957 13.0859 353.379 13.0859C354.895 13.0859 356.117 13.4609 357.047 14.2109C357.984 14.9609 358.453 15.9336 358.453 17.1289H355.605C355.605 16.582 355.402 16.1289 354.996 15.7695C354.59 15.4023 354.051 15.2188 353.379 15.2188C352.754 15.2188 352.242 15.3633 351.844 15.6523C351.453 15.9414 351.258 16.3281 351.258 16.8125C351.258 17.25 351.441 17.5898 351.809 17.832C352.176 18.0742 352.918 18.3203 354.035 18.5703C355.152 18.8125 356.027 19.1055 356.66 19.4492C357.301 19.7852 357.773 20.1914 358.078 20.668C358.391 21.1445 358.547 21.7227 358.547 22.4023C358.547 23.543 358.074 24.4688 357.129 25.1797C356.184 25.8828 354.945 26.2344 353.414 26.2344C352.375 26.2344 351.449 26.0469 350.637 25.6719C349.824 25.2969 349.191 24.7812 348.738 24.125C348.285 23.4688 348.059 22.7617 348.059 22.0039H350.824C350.863 22.6758 351.117 23.1953 351.586 23.5625C352.055 23.9219 352.676 24.1016 353.449 24.1016C354.199 24.1016 354.77 23.9609 355.16 23.6797C355.551 23.3906 355.746 23.0156 355.746 22.5547ZM363.844 14.7031C364.773 13.625 365.949 13.0859 367.371 13.0859C370.074 13.0859 371.445 14.6289 371.484 17.7148V26H368.637V17.8203C368.637 16.9453 368.445 16.3281 368.062 15.9688C367.688 15.6016 367.133 15.418 366.398 15.418C365.258 15.418 364.406 15.9258 363.844 16.9414V26H360.996V8H363.844V14.7031ZM373.84 19.543C373.84 18.3008 374.086 17.1836 374.578 16.1914C375.07 15.1914 375.762 14.4258 376.652 13.8945C377.543 13.3555 378.566 13.0859 379.723 13.0859C381.434 13.0859 382.82 13.6367 383.883 14.7383C384.953 15.8398 385.531 17.3008 385.617 19.1211L385.629 19.7891C385.629 21.0391 385.387 22.1562 384.902 23.1406C384.426 24.125 383.738 24.8867 382.84 25.4258C381.949 25.9648 380.918 26.2344 379.746 26.2344C377.957 26.2344 376.523 25.6406 375.445 24.4531C374.375 23.2578 373.84 21.668 373.84 19.6836V19.543ZM376.688 19.7891C376.688 21.0938 376.957 22.1172 377.496 22.8594C378.035 23.5938 378.785 23.9609 379.746 23.9609C380.707 23.9609 381.453 23.5859 381.984 22.8359C382.523 22.0859 382.793 20.9883 382.793 19.543C382.793 18.2617 382.516 17.2461 381.961 16.4961C381.414 15.7461 380.668 15.3711 379.723 15.3711C378.793 15.3711 378.055 15.7422 377.508 16.4844C376.961 17.2188 376.688 18.3203 376.688 19.7891ZM394.676 15.9219C394.301 15.8594 393.914 15.8281 393.516 15.8281C392.211 15.8281 391.332 16.3281 390.879 17.3281V26H388.031V13.3203H390.75L390.82 14.7383C391.508 13.6367 392.461 13.0859 393.68 13.0859C394.086 13.0859 394.422 13.1406 394.688 13.25L394.676 15.9219ZM400.629 10.2383V13.3203H402.867V15.4297H400.629V22.5078C400.629 22.9922 400.723 23.3438 400.91 23.5625C401.105 23.7734 401.449 23.8789 401.941 23.8789C402.27 23.8789 402.602 23.8398 402.938 23.7617V25.9648C402.289 26.1445 401.664 26.2344 401.062 26.2344C398.875 26.2344 397.781 25.0273 397.781 22.6133V15.4297H395.695V13.3203H397.781V10.2383H400.629ZM410.262 23.9609C410.973 23.9609 411.562 23.7539 412.031 23.3398C412.5 22.9258 412.75 22.4141 412.781 21.8047H415.465C415.434 22.5938 415.188 23.332 414.727 24.0195C414.266 24.6992 413.641 25.2383 412.852 25.6367C412.062 26.0352 411.211 26.2344 410.297 26.2344C408.523 26.2344 407.117 25.6602 406.078 24.5117C405.039 23.3633 404.52 21.7773 404.52 19.7539V19.4609C404.52 17.5312 405.035 15.9883 406.066 14.832C407.098 13.668 408.504 13.0859 410.285 13.0859C411.793 13.0859 413.02 13.5273 413.965 14.4102C414.918 15.2852 415.418 16.4375 415.465 17.8672H412.781C412.75 17.1406 412.5 16.543 412.031 16.0742C411.57 15.6055 410.98 15.3711 410.262 15.3711C409.34 15.3711 408.629 15.707 408.129 16.3789C407.629 17.043 407.375 18.0547 407.367 19.4141V19.8711C407.367 21.2461 407.613 22.2734 408.105 22.9531C408.605 23.625 409.324 23.9609 410.262 23.9609ZM425.297 24.7578C424.461 25.7422 423.273 26.2344 421.734 26.2344C420.359 26.2344 419.316 25.832 418.605 25.0273C417.902 24.2227 417.551 23.0586 417.551 21.5352V13.3203H420.398V21.5C420.398 23.1094 421.066 23.9141 422.402 23.9141C423.785 23.9141 424.719 23.418 425.203 22.4258V13.3203H428.051V26H425.367L425.297 24.7578ZM434.52 10.2383V13.3203H436.758V15.4297H434.52V22.5078C434.52 22.9922 434.613 23.3438 434.801 23.5625C434.996 23.7734 435.34 23.8789 435.832 23.8789C436.16 23.8789 436.492 23.8398 436.828 23.7617V25.9648C436.18 26.1445 435.555 26.2344 434.953 26.2344C432.766 26.2344 431.672 25.0273 431.672 22.6133V15.4297H429.586V13.3203H431.672V10.2383H434.52Z" fill="#A8A8B3"/>
<path d="M31.32 4.6485C30.2205 3.549 28.8975 3 27.3495 3H8.619C7.071 3 5.748 3.549 4.6485 4.6485C3.549 5.748 3 7.071 3 8.619V27.3495C3 28.8975 3.549 30.2205 4.6485 31.32C5.748 32.4195 7.071 32.9685 8.619 32.9685H12.99C13.275 32.9685 13.4895 32.958 13.6335 32.9385C13.801 32.9049 13.9523 32.8156 14.0625 32.685C14.205 32.535 14.277 32.3175 14.277 32.0325L14.2665 30.705C14.2605 29.859 14.2575 29.19 14.2575 28.695L13.8075 28.773C13.5225 28.8255 13.1625 28.848 12.726 28.842C12.271 28.8336 11.8175 28.788 11.37 28.7055C10.8936 28.6175 10.4451 28.417 10.062 28.1205C9.66074 27.8169 9.36146 27.3984 9.204 26.9205L9.009 26.4705C8.84464 26.1155 8.63816 25.7816 8.394 25.476C8.115 25.1115 7.8315 24.8655 7.545 24.735L7.41 24.6375C7.31587 24.5701 7.23024 24.4915 7.155 24.4035C7.08314 24.3218 7.02398 24.2298 6.9795 24.1305C6.9405 24.039 6.9735 23.964 7.077 23.9055C7.182 23.8455 7.3695 23.817 7.644 23.817L8.034 23.877C8.2935 23.928 8.616 24.084 8.9985 24.3435C9.38559 24.6074 9.70894 24.9543 9.945 25.359C10.245 25.8915 10.605 26.298 11.028 26.5785C11.451 26.8575 11.877 26.9985 12.306 26.9985C12.735 26.9985 13.1055 26.9655 13.419 26.901C13.7222 26.8383 14.0168 26.7396 14.2965 26.607C14.4135 25.737 14.7315 25.065 15.252 24.597C14.5776 24.5309 13.9091 24.4135 13.2525 24.246C12.6117 24.07 11.9954 23.8145 11.418 23.4855C10.8139 23.1566 10.2803 22.7122 9.8475 22.1775C9.432 21.657 9.09 20.9745 8.823 20.13C8.5575 19.284 8.424 18.3075 8.424 17.202C8.424 15.6285 8.937 14.289 9.9645 13.182C9.4845 12 9.5295 10.6725 10.101 9.204C10.479 9.0855 11.0385 9.174 11.7795 9.4665C12.5205 9.759 13.0635 10.0095 13.4085 10.2165C13.7535 10.4265 14.0295 10.602 14.238 10.7445C15.4575 10.4051 16.7177 10.2345 17.9835 10.2375C19.272 10.2375 20.52 10.407 21.7305 10.7445L22.4715 10.2765C23.0415 9.93428 23.6427 9.64699 24.267 9.4185C24.957 9.1575 25.482 9.087 25.848 9.204C26.433 10.674 26.484 12 26.0025 13.1835C27.03 14.289 27.5445 15.6285 27.5445 17.2035C27.5445 18.309 27.411 19.2885 27.144 20.139C26.8785 20.991 26.5335 21.6735 26.1105 22.188C25.6701 22.7158 25.1343 23.156 24.531 23.4855C23.901 23.8365 23.289 24.09 22.6965 24.246C22.0399 24.4141 21.3715 24.5319 20.697 24.5985C21.372 25.1835 21.711 26.106 21.711 27.3675V32.0325C21.711 32.253 21.7425 32.4315 21.8085 32.568C21.8388 32.6338 21.8821 32.6928 21.9357 32.7415C21.9893 32.7902 22.0521 32.8276 22.1205 32.8515C22.2645 32.9025 22.3905 32.9355 22.5015 32.9475C22.6125 32.9625 22.7715 32.967 22.9785 32.967H27.3495C28.8975 32.967 30.2205 32.418 31.32 31.3185C32.418 30.2205 32.9685 28.896 32.9685 27.348V8.619C32.9685 7.071 32.418 5.748 31.3185 4.6485H31.32Z" fill="black"/>
</svg>
