<svg width="489" height="36" viewBox="0 0 489 36" fill="none" xmlns="http://www.w3.org/2000/svg">
<path d="M48.9609 19.5664C48.9609 17.5977 49.4219 16.0273 50.3438 14.8555C51.2734 13.6758 52.5039 13.0859 54.0352 13.0859C55.4805 13.0859 56.6172 13.5898 57.4453 14.5977L57.5742 13.3203H60.1406V25.6133C60.1406 27.2773 59.6211 28.5898 58.582 29.5508C57.5508 30.5117 56.1562 30.9922 54.3984 30.9922C53.4688 30.9922 52.5586 30.7969 51.668 30.4062C50.7852 30.0234 50.1133 29.5195 49.6523 28.8945L51 27.1836C51.875 28.2227 52.9531 28.7422 54.2344 28.7422C55.1797 28.7422 55.9258 28.4844 56.4727 27.9688C57.0195 27.4609 57.293 26.7109 57.293 25.7188V24.8633C56.4727 25.7773 55.3789 26.2344 54.0117 26.2344C52.5273 26.2344 51.3125 25.6445 50.3672 24.4648C49.4297 23.2852 48.9609 21.6523 48.9609 19.5664ZM51.7969 19.8125C51.7969 21.0859 52.0547 22.0898 52.5703 22.8242C53.0938 23.5508 53.8164 23.9141 54.7383 23.9141C55.8867 23.9141 56.7383 23.4219 57.293 22.4375V16.8594C56.7539 15.8984 55.9102 15.418 54.7617 15.418C53.8242 15.418 53.0938 15.7891 52.5703 16.5312C52.0547 17.2734 51.7969 18.3672 51.7969 19.8125ZM66.1055 26H63.2578V13.3203H66.1055V26ZM63.082 10.0273C63.082 9.58984 63.2188 9.22656 63.4922 8.9375C63.7734 8.64844 64.1719 8.50391 64.6875 8.50391C65.2031 8.50391 65.6016 8.64844 65.8828 8.9375C66.1641 9.22656 66.3047 9.58984 66.3047 10.0273C66.3047 10.457 66.1641 10.8164 65.8828 11.1055C65.6016 11.3867 65.2031 11.5273 64.6875 11.5273C64.1719 11.5273 63.7734 11.3867 63.4922 11.1055C63.2188 10.8164 63.082 10.457 63.082 10.0273ZM72.7852 10.2383V13.3203H75.0234V15.4297H72.7852V22.5078C72.7852 22.9922 72.8789 23.3438 73.0664 23.5625C73.2617 23.7734 73.6055 23.8789 74.0977 23.8789C74.4258 23.8789 74.7578 23.8398 75.0938 23.7617V25.9648C74.4453 26.1445 73.8203 26.2344 73.2188 26.2344C71.0312 26.2344 69.9375 25.0273 69.9375 22.6133V15.4297H67.8516V13.3203H69.9375V10.2383H72.7852ZM80.0156 14.7031C80.9453 13.625 82.1211 13.0859 83.543 13.0859C86.2461 13.0859 87.6172 14.6289 87.6562 17.7148V26H84.8086V17.8203C84.8086 16.9453 84.6172 16.3281 84.2344 15.9688C83.8594 15.6016 83.3047 15.418 82.5703 15.418C81.4297 15.418 80.5781 15.9258 80.0156 16.9414V26H77.168V8H80.0156V14.7031ZM98.2266 24.7578C97.3906 25.7422 96.2031 26.2344 94.6641 26.2344C93.2891 26.2344 92.2461 25.832 91.5352 25.0273C90.832 24.2227 90.4805 23.0586 90.4805 21.5352V13.3203H93.3281V21.5C93.3281 23.1094 93.9961 23.9141 95.332 23.9141C96.7148 23.9141 97.6484 23.418 98.1328 22.4258V13.3203H100.98V26H98.2969L98.2266 24.7578ZM115.008 19.7891C115.008 21.7578 114.566 23.3242 113.684 24.4883C112.809 25.6523 111.602 26.2344 110.062 26.2344C108.578 26.2344 107.422 25.6992 106.594 24.6289L106.453 26H103.875V8H106.723V14.5391C107.543 13.5703 108.648 13.0859 110.039 13.0859C111.586 13.0859 112.801 13.6602 113.684 14.8086C114.566 15.957 115.008 17.5625 115.008 19.625V19.7891ZM112.16 19.543C112.16 18.168 111.918 17.1367 111.434 16.4492C110.949 15.7617 110.246 15.418 109.324 15.418C108.09 15.418 107.223 15.957 106.723 17.0352V22.2617C107.23 23.3633 108.105 23.9141 109.348 23.9141C110.238 23.9141 110.926 23.582 111.41 22.918C111.895 22.2539 112.145 21.25 112.16 19.9062V19.543ZM134.508 19.7891C134.508 21.7578 134.066 23.3242 133.184 24.4883C132.309 25.6523 131.102 26.2344 129.562 26.2344C128.078 26.2344 126.922 25.6992 126.094 24.6289L125.953 26H123.375V8H126.223V14.5391C127.043 13.5703 128.148 13.0859 129.539 13.0859C131.086 13.0859 132.301 13.6602 133.184 14.8086C134.066 15.957 134.508 17.5625 134.508 19.625V19.7891ZM131.66 19.543C131.66 18.168 131.418 17.1367 130.934 16.4492C130.449 15.7617 129.746 15.418 128.824 15.418C127.59 15.418 126.723 15.957 126.223 17.0352V22.2617C126.73 23.3633 127.605 23.9141 128.848 23.9141C129.738 23.9141 130.426 23.582 130.91 22.918C131.395 22.2539 131.645 21.25 131.66 19.9062V19.543ZM136.371 19.543C136.371 18.3008 136.617 17.1836 137.109 16.1914C137.602 15.1914 138.293 14.4258 139.184 13.8945C140.074 13.3555 141.098 13.0859 142.254 13.0859C143.965 13.0859 145.352 13.6367 146.414 14.7383C147.484 15.8398 148.062 17.3008 148.148 19.1211L148.16 19.7891C148.16 21.0391 147.918 22.1562 147.434 23.1406C146.957 24.125 146.27 24.8867 145.371 25.4258C144.48 25.9648 143.449 26.2344 142.277 26.2344C140.488 26.2344 139.055 25.6406 137.977 24.4531C136.906 23.2578 136.371 21.668 136.371 19.6836V19.543ZM139.219 19.7891C139.219 21.0938 139.488 22.1172 140.027 22.8594C140.566 23.5938 141.316 23.9609 142.277 23.9609C143.238 23.9609 143.984 23.5859 144.516 22.8359C145.055 22.0859 145.324 20.9883 145.324 19.543C145.324 18.2617 145.047 17.2461 144.492 16.4961C143.945 15.7461 143.199 15.3711 142.254 15.3711C141.324 15.3711 140.586 15.7422 140.039 16.4844C139.492 17.2188 139.219 18.3203 139.219 19.7891ZM154.863 17.4922L157.277 13.3203H160.441L156.562 19.5664L160.57 26H157.43L154.898 21.6641L152.379 26H149.215L153.223 19.5664L149.355 13.3203H152.496L154.863 17.4922ZM162.785 29.8438L161.25 28.9297C161.703 28.2188 162.012 27.5977 162.176 27.0664C162.348 26.543 162.438 26.0078 162.445 25.4609V23.2461H165.012L165 25.2969C164.992 26.125 164.781 26.9531 164.367 27.7812C163.961 28.6172 163.434 29.3047 162.785 29.8438Z" fill="#E9E9E9"/>
<path d="M181.312 24.7578C180.477 25.7422 179.289 26.2344 177.75 26.2344C176.375 26.2344 175.332 25.832 174.621 25.0273C173.918 24.2227 173.566 23.0586 173.566 21.5352V13.3203H176.414V21.5C176.414 23.1094 177.082 23.9141 178.418 23.9141C179.801 23.9141 180.734 23.418 181.219 22.4258V13.3203H184.066V26H181.383L181.312 24.7578ZM189.645 13.3203L189.727 14.6445C190.617 13.6055 191.836 13.0859 193.383 13.0859C195.078 13.0859 196.238 13.7344 196.863 15.0312C197.785 13.7344 199.082 13.0859 200.754 13.0859C202.152 13.0859 203.191 13.4727 203.871 14.2461C204.559 15.0195 204.91 16.1602 204.926 17.668V26H202.078V17.75C202.078 16.9453 201.902 16.3555 201.551 15.9805C201.199 15.6055 200.617 15.418 199.805 15.418C199.156 15.418 198.625 15.5938 198.211 15.9453C197.805 16.2891 197.52 16.7422 197.355 17.3047L197.367 26H194.52V17.6562C194.48 16.1641 193.719 15.418 192.234 15.418C191.094 15.418 190.285 15.8828 189.809 16.8125V26H186.961V13.3203H189.645ZM221.402 26C221.277 25.7578 221.168 25.3633 221.074 24.8164C220.168 25.7617 219.059 26.2344 217.746 26.2344C216.473 26.2344 215.434 25.8711 214.629 25.1445C213.824 24.418 213.422 23.5195 213.422 22.4492C213.422 21.0977 213.922 20.0625 214.922 19.3438C215.93 18.6172 217.367 18.2539 219.234 18.2539H220.98V17.4219C220.98 16.7656 220.797 16.2422 220.43 15.8516C220.062 15.4531 219.504 15.2539 218.754 15.2539C218.105 15.2539 217.574 15.418 217.16 15.7461C216.746 16.0664 216.539 16.4766 216.539 16.9766H213.691C213.691 16.2812 213.922 15.6328 214.383 15.0312C214.844 14.4219 215.469 13.9453 216.258 13.6016C217.055 13.2578 217.941 13.0859 218.918 13.0859C220.402 13.0859 221.586 13.4609 222.469 14.2109C223.352 14.9531 223.805 16 223.828 17.3516V23.0703C223.828 24.2109 223.988 25.1211 224.309 25.8008V26H221.402ZM218.273 23.9492C218.836 23.9492 219.363 23.8125 219.855 23.5391C220.355 23.2656 220.73 22.8984 220.98 22.4375V20.0469H219.445C218.391 20.0469 217.598 20.2305 217.066 20.5977C216.535 20.9648 216.27 21.4844 216.27 22.1562C216.27 22.7031 216.449 23.1406 216.809 23.4688C217.176 23.7891 217.664 23.9492 218.273 23.9492ZM230.379 10.2383V13.3203H232.617V15.4297H230.379V22.5078C230.379 22.9922 230.473 23.3438 230.66 23.5625C230.855 23.7734 231.199 23.8789 231.691 23.8789C232.02 23.8789 232.352 23.8398 232.688 23.7617V25.9648C232.039 26.1445 231.414 26.2344 230.812 26.2344C228.625 26.2344 227.531 25.0273 227.531 22.6133V15.4297H225.445V13.3203H227.531V10.2383H230.379ZM242.379 26C242.254 25.7578 242.145 25.3633 242.051 24.8164C241.145 25.7617 240.035 26.2344 238.723 26.2344C237.449 26.2344 236.41 25.8711 235.605 25.1445C234.801 24.418 234.398 23.5195 234.398 22.4492C234.398 21.0977 234.898 20.0625 235.898 19.3438C236.906 18.6172 238.344 18.2539 240.211 18.2539H241.957V17.4219C241.957 16.7656 241.773 16.2422 241.406 15.8516C241.039 15.4531 240.48 15.2539 239.73 15.2539C239.082 15.2539 238.551 15.418 238.137 15.7461C237.723 16.0664 237.516 16.4766 237.516 16.9766H234.668C234.668 16.2812 234.898 15.6328 235.359 15.0312C235.82 14.4219 236.445 13.9453 237.234 13.6016C238.031 13.2578 238.918 13.0859 239.895 13.0859C241.379 13.0859 242.562 13.4609 243.445 14.2109C244.328 14.9531 244.781 16 244.805 17.3516V23.0703C244.805 24.2109 244.965 25.1211 245.285 25.8008V26H242.379ZM239.25 23.9492C239.812 23.9492 240.34 23.8125 240.832 23.5391C241.332 23.2656 241.707 22.8984 241.957 22.4375V20.0469H240.422C239.367 20.0469 238.574 20.2305 238.043 20.5977C237.512 20.9648 237.246 21.4844 237.246 22.1562C237.246 22.7031 237.426 23.1406 237.785 23.4688C238.152 23.7891 238.641 23.9492 239.25 23.9492ZM250.816 26H247.969V8H250.816V26ZM256.734 14.7031C257.664 13.625 258.84 13.0859 260.262 13.0859C262.965 13.0859 264.336 14.6289 264.375 17.7148V26H261.527V17.8203C261.527 16.9453 261.336 16.3281 260.953 15.9688C260.578 15.6016 260.023 15.418 259.289 15.418C258.148 15.418 257.297 15.9258 256.734 16.9414V26H253.887V8H256.734V14.7031ZM266.73 19.543C266.73 18.3008 266.977 17.1836 267.469 16.1914C267.961 15.1914 268.652 14.4258 269.543 13.8945C270.434 13.3555 271.457 13.0859 272.613 13.0859C274.324 13.0859 275.711 13.6367 276.773 14.7383C277.844 15.8398 278.422 17.3008 278.508 19.1211L278.52 19.7891C278.52 21.0391 278.277 22.1562 277.793 23.1406C277.316 24.125 276.629 24.8867 275.73 25.4258C274.84 25.9648 273.809 26.2344 272.637 26.2344C270.848 26.2344 269.414 25.6406 268.336 24.4531C267.266 23.2578 266.73 21.668 266.73 19.6836V19.543ZM269.578 19.7891C269.578 21.0938 269.848 22.1172 270.387 22.8594C270.926 23.5938 271.676 23.9609 272.637 23.9609C273.598 23.9609 274.344 23.5859 274.875 22.8359C275.414 22.0859 275.684 20.9883 275.684 19.543C275.684 18.2617 275.406 17.2461 274.852 16.4961C274.305 15.7461 273.559 15.3711 272.613 15.3711C271.684 15.3711 270.945 15.7422 270.398 16.4844C269.852 17.2188 269.578 18.3203 269.578 19.7891ZM298.008 19.7891C298.008 21.75 297.562 23.3164 296.672 24.4883C295.781 25.6523 294.586 26.2344 293.086 26.2344C291.695 26.2344 290.582 25.7773 289.746 24.8633V30.875H286.898V13.3203H289.523L289.641 14.6094C290.477 13.5938 291.613 13.0859 293.051 13.0859C294.598 13.0859 295.809 13.6641 296.684 14.8203C297.566 15.9688 298.008 17.5664 298.008 19.6133V19.7891ZM295.172 19.543C295.172 18.2773 294.918 17.2734 294.41 16.5312C293.91 15.7891 293.191 15.418 292.254 15.418C291.09 15.418 290.254 15.8984 289.746 16.8594V22.4844C290.262 23.4688 291.105 23.9609 292.277 23.9609C293.184 23.9609 293.891 23.5977 294.398 22.8711C294.914 22.1367 295.172 21.0273 295.172 19.543ZM308.004 26C307.879 25.7578 307.77 25.3633 307.676 24.8164C306.77 25.7617 305.66 26.2344 304.348 26.2344C303.074 26.2344 302.035 25.8711 301.23 25.1445C300.426 24.418 300.023 23.5195 300.023 22.4492C300.023 21.0977 300.523 20.0625 301.523 19.3438C302.531 18.6172 303.969 18.2539 305.836 18.2539H307.582V17.4219C307.582 16.7656 307.398 16.2422 307.031 15.8516C306.664 15.4531 306.105 15.2539 305.355 15.2539C304.707 15.2539 304.176 15.418 303.762 15.7461C303.348 16.0664 303.141 16.4766 303.141 16.9766H300.293C300.293 16.2812 300.523 15.6328 300.984 15.0312C301.445 14.4219 302.07 13.9453 302.859 13.6016C303.656 13.2578 304.543 13.0859 305.52 13.0859C307.004 13.0859 308.188 13.4609 309.07 14.2109C309.953 14.9531 310.406 16 310.43 17.3516V23.0703C310.43 24.2109 310.59 25.1211 310.91 25.8008V26H308.004ZM304.875 23.9492C305.438 23.9492 305.965 23.8125 306.457 23.5391C306.957 23.2656 307.332 22.8984 307.582 22.4375V20.0469H306.047C304.992 20.0469 304.199 20.2305 303.668 20.5977C303.137 20.9648 302.871 21.4844 302.871 22.1562C302.871 22.7031 303.051 23.1406 303.41 23.4688C303.777 23.7891 304.266 23.9492 304.875 23.9492ZM320.051 15.9219C319.676 15.8594 319.289 15.8281 318.891 15.8281C317.586 15.8281 316.707 16.3281 316.254 17.3281V26H313.406V13.3203H316.125L316.195 14.7383C316.883 13.6367 317.836 13.0859 319.055 13.0859C319.461 13.0859 319.797 13.1406 320.062 13.25L320.051 15.9219ZM329.074 26C328.949 25.7578 328.84 25.3633 328.746 24.8164C327.84 25.7617 326.73 26.2344 325.418 26.2344C324.145 26.2344 323.105 25.8711 322.301 25.1445C321.496 24.418 321.094 23.5195 321.094 22.4492C321.094 21.0977 321.594 20.0625 322.594 19.3438C323.602 18.6172 325.039 18.2539 326.906 18.2539H328.652V17.4219C328.652 16.7656 328.469 16.2422 328.102 15.8516C327.734 15.4531 327.176 15.2539 326.426 15.2539C325.777 15.2539 325.246 15.418 324.832 15.7461C324.418 16.0664 324.211 16.4766 324.211 16.9766H321.363C321.363 16.2812 321.594 15.6328 322.055 15.0312C322.516 14.4219 323.141 13.9453 323.93 13.6016C324.727 13.2578 325.613 13.0859 326.59 13.0859C328.074 13.0859 329.258 13.4609 330.141 14.2109C331.023 14.9531 331.477 16 331.5 17.3516V23.0703C331.5 24.2109 331.66 25.1211 331.98 25.8008V26H329.074ZM325.945 23.9492C326.508 23.9492 327.035 23.8125 327.527 23.5391C328.027 23.2656 328.402 22.8984 328.652 22.4375V20.0469H327.117C326.062 20.0469 325.27 20.2305 324.738 20.5977C324.207 20.9648 323.941 21.4844 323.941 22.1562C323.941 22.7031 324.121 23.1406 324.48 23.4688C324.848 23.7891 325.336 23.9492 325.945 23.9492ZM344.027 10.2383V13.3203H346.266V15.4297H344.027V22.5078C344.027 22.9922 344.121 23.3438 344.309 23.5625C344.504 23.7734 344.848 23.8789 345.34 23.8789C345.668 23.8789 346 23.8398 346.336 23.7617V25.9648C345.688 26.1445 345.062 26.2344 344.461 26.2344C342.273 26.2344 341.18 25.0273 341.18 22.6133V15.4297H339.094V13.3203H341.18V10.2383H344.027ZM354.035 26.2344C352.23 26.2344 350.766 25.668 349.641 24.5352C348.523 23.3945 347.965 21.8789 347.965 19.9883V19.6367C347.965 18.3711 348.207 17.2422 348.691 16.25C349.184 15.25 349.871 14.4727 350.754 13.918C351.637 13.3633 352.621 13.0859 353.707 13.0859C355.434 13.0859 356.766 13.6367 357.703 14.7383C358.648 15.8398 359.121 17.3984 359.121 19.4141V20.5625H350.836C350.922 21.6094 351.27 22.4375 351.879 23.0469C352.496 23.6562 353.27 23.9609 354.199 23.9609C355.504 23.9609 356.566 23.4336 357.387 22.3789L358.922 23.8438C358.414 24.6016 357.734 25.1914 356.883 25.6133C356.039 26.0273 355.09 26.2344 354.035 26.2344ZM353.695 15.3711C352.914 15.3711 352.281 15.6445 351.797 16.1914C351.32 16.7383 351.016 17.5 350.883 18.4766H356.309V18.2656C356.246 17.3125 355.992 16.5938 355.547 16.1094C355.102 15.6172 354.484 15.3711 353.695 15.3711ZM366.551 23.9609C367.262 23.9609 367.852 23.7539 368.32 23.3398C368.789 22.9258 369.039 22.4141 369.07 21.8047H371.754C371.723 22.5938 371.477 23.332 371.016 24.0195C370.555 24.6992 369.93 25.2383 369.141 25.6367C368.352 26.0352 367.5 26.2344 366.586 26.2344C364.812 26.2344 363.406 25.6602 362.367 24.5117C361.328 23.3633 360.809 21.7773 360.809 19.7539V19.4609C360.809 17.5312 361.324 15.9883 362.355 14.832C363.387 13.668 364.793 13.0859 366.574 13.0859C368.082 13.0859 369.309 13.5273 370.254 14.4102C371.207 15.2852 371.707 16.4375 371.754 17.8672H369.07C369.039 17.1406 368.789 16.543 368.32 16.0742C367.859 15.6055 367.27 15.3711 366.551 15.3711C365.629 15.3711 364.918 15.707 364.418 16.3789C363.918 17.043 363.664 18.0547 363.656 19.4141V19.8711C363.656 21.2461 363.902 22.2734 364.395 22.9531C364.895 23.625 365.613 23.9609 366.551 23.9609ZM376.711 14.7031C377.641 13.625 378.816 13.0859 380.238 13.0859C382.941 13.0859 384.312 14.6289 384.352 17.7148V26H381.504V17.8203C381.504 16.9453 381.312 16.3281 380.93 15.9688C380.555 15.6016 380 15.418 379.266 15.418C378.125 15.418 377.273 15.9258 376.711 16.9414V26H373.863V8H376.711V14.7031ZM393.879 15.9219C393.504 15.8594 393.117 15.8281 392.719 15.8281C391.414 15.8281 390.535 16.3281 390.082 17.3281V26H387.234V13.3203H389.953L390.023 14.7383C390.711 13.6367 391.664 13.0859 392.883 13.0859C393.289 13.0859 393.625 13.1406 393.891 13.25L393.879 15.9219ZM401.027 26.2344C399.223 26.2344 397.758 25.668 396.633 24.5352C395.516 23.3945 394.957 21.8789 394.957 19.9883V19.6367C394.957 18.3711 395.199 17.2422 395.684 16.25C396.176 15.25 396.863 14.4727 397.746 13.918C398.629 13.3633 399.613 13.0859 400.699 13.0859C402.426 13.0859 403.758 13.6367 404.695 14.7383C405.641 15.8398 406.113 17.3984 406.113 19.4141V20.5625H397.828C397.914 21.6094 398.262 22.4375 398.871 23.0469C399.488 23.6562 400.262 23.9609 401.191 23.9609C402.496 23.9609 403.559 23.4336 404.379 22.3789L405.914 23.8438C405.406 24.6016 404.727 25.1914 403.875 25.6133C403.031 26.0273 402.082 26.2344 401.027 26.2344ZM400.688 15.3711C399.906 15.3711 399.273 15.6445 398.789 16.1914C398.312 16.7383 398.008 17.5 397.875 18.4766H403.301V18.2656C403.238 17.3125 402.984 16.5938 402.539 16.1094C402.094 15.6172 401.477 15.3711 400.688 15.3711ZM413.543 23.9609C414.254 23.9609 414.844 23.7539 415.312 23.3398C415.781 22.9258 416.031 22.4141 416.062 21.8047H418.746C418.715 22.5938 418.469 23.332 418.008 24.0195C417.547 24.6992 416.922 25.2383 416.133 25.6367C415.344 26.0352 414.492 26.2344 413.578 26.2344C411.805 26.2344 410.398 25.6602 409.359 24.5117C408.32 23.3633 407.801 21.7773 407.801 19.7539V19.4609C407.801 17.5312 408.316 15.9883 409.348 14.832C410.379 13.668 411.785 13.0859 413.566 13.0859C415.074 13.0859 416.301 13.5273 417.246 14.4102C418.199 15.2852 418.699 16.4375 418.746 17.8672H416.062C416.031 17.1406 415.781 16.543 415.312 16.0742C414.852 15.6055 414.262 15.3711 413.543 15.3711C412.621 15.3711 411.91 15.707 411.41 16.3789C410.91 17.043 410.656 18.0547 410.648 19.4141V19.8711C410.648 21.2461 410.895 22.2734 411.387 22.9531C411.887 23.625 412.605 23.9609 413.543 23.9609ZM427.535 15.9219C427.16 15.8594 426.773 15.8281 426.375 15.8281C425.07 15.8281 424.191 16.3281 423.738 17.3281V26H420.891V13.3203H423.609L423.68 14.7383C424.367 13.6367 425.32 13.0859 426.539 13.0859C426.945 13.0859 427.281 13.1406 427.547 13.25L427.535 15.9219ZM437.016 24.7578C436.18 25.7422 434.992 26.2344 433.453 26.2344C432.078 26.2344 431.035 25.832 430.324 25.0273C429.621 24.2227 429.27 23.0586 429.27 21.5352V13.3203H432.117V21.5C432.117 23.1094 432.785 23.9141 434.121 23.9141C435.504 23.9141 436.438 23.418 436.922 22.4258V13.3203H439.77V26H437.086L437.016 24.7578ZM445.699 26H442.852V13.3203H445.699V26ZM442.676 10.0273C442.676 9.58984 442.812 9.22656 443.086 8.9375C443.367 8.64844 443.766 8.50391 444.281 8.50391C444.797 8.50391 445.195 8.64844 445.477 8.9375C445.758 9.22656 445.898 9.58984 445.898 10.0273C445.898 10.457 445.758 10.8164 445.477 11.1055C445.195 11.3867 444.797 11.5273 444.281 11.5273C443.766 11.5273 443.367 11.3867 443.086 11.1055C442.812 10.8164 442.676 10.457 442.676 10.0273ZM452.379 10.2383V13.3203H454.617V15.4297H452.379V22.5078C452.379 22.9922 452.473 23.3438 452.66 23.5625C452.855 23.7734 453.199 23.8789 453.691 23.8789C454.02 23.8789 454.352 23.8398 454.688 23.7617V25.9648C454.039 26.1445 453.414 26.2344 452.812 26.2344C450.625 26.2344 449.531 25.0273 449.531 22.6133V15.4297H447.445V13.3203H449.531V10.2383H452.379ZM462.387 26.2344C460.582 26.2344 459.117 25.668 457.992 24.5352C456.875 23.3945 456.316 21.8789 456.316 19.9883V19.6367C456.316 18.3711 456.559 17.2422 457.043 16.25C457.535 15.25 458.223 14.4727 459.105 13.918C459.988 13.3633 460.973 13.0859 462.059 13.0859C463.785 13.0859 465.117 13.6367 466.055 14.7383C467 15.8398 467.473 17.3984 467.473 19.4141V20.5625H459.188C459.273 21.6094 459.621 22.4375 460.23 23.0469C460.848 23.6562 461.621 23.9609 462.551 23.9609C463.855 23.9609 464.918 23.4336 465.738 22.3789L467.273 23.8438C466.766 24.6016 466.086 25.1914 465.234 25.6133C464.391 26.0273 463.441 26.2344 462.387 26.2344ZM462.047 15.3711C461.266 15.3711 460.633 15.6445 460.148 16.1914C459.672 16.7383 459.367 17.5 459.234 18.4766H464.66V18.2656C464.598 17.3125 464.344 16.5938 463.898 16.1094C463.453 15.6172 462.836 15.3711 462.047 15.3711ZM476.332 15.9219C475.957 15.8594 475.57 15.8281 475.172 15.8281C473.867 15.8281 472.988 16.3281 472.535 17.3281V26H469.688V13.3203H472.406L472.477 14.7383C473.164 13.6367 474.117 13.0859 475.336 13.0859C475.742 13.0859 476.078 13.1406 476.344 13.25L476.332 15.9219ZM485.238 22.5547C485.238 22.0469 485.027 21.6602 484.605 21.3945C484.191 21.1289 483.5 20.8945 482.531 20.6914C481.562 20.4883 480.754 20.2305 480.105 19.918C478.684 19.2305 477.973 18.2344 477.973 16.9297C477.973 15.8359 478.434 14.9219 479.355 14.1875C480.277 13.4531 481.449 13.0859 482.871 13.0859C484.387 13.0859 485.609 13.4609 486.539 14.2109C487.477 14.9609 487.945 15.9336 487.945 17.1289H485.098C485.098 16.582 484.895 16.1289 484.488 15.7695C484.082 15.4023 483.543 15.2188 482.871 15.2188C482.246 15.2188 481.734 15.3633 481.336 15.6523C480.945 15.9414 480.75 16.3281 480.75 16.8125C480.75 17.25 480.934 17.5898 481.301 17.832C481.668 18.0742 482.41 18.3203 483.527 18.5703C484.645 18.8125 485.52 19.1055 486.152 19.4492C486.793 19.7852 487.266 20.1914 487.57 20.668C487.883 21.1445 488.039 21.7227 488.039 22.4023C488.039 23.543 487.566 24.4688 486.621 25.1797C485.676 25.8828 484.438 26.2344 482.906 26.2344C481.867 26.2344 480.941 26.0469 480.129 25.6719C479.316 25.2969 478.684 24.7812 478.23 24.125C477.777 23.4688 477.551 22.7617 477.551 22.0039H480.316C480.355 22.6758 480.609 23.1953 481.078 23.5625C481.547 23.9219 482.168 24.1016 482.941 24.1016C483.691 24.1016 484.262 23.9609 484.652 23.6797C485.043 23.3906 485.238 23.0156 485.238 22.5547Z" fill="#737380"/>
<path d="M31.32 4.6485C30.2205 3.549 28.8975 3 27.3495 3H8.619C7.071 3 5.748 3.549 4.6485 4.6485C3.549 5.748 3 7.071 3 8.619V27.3495C3 28.8975 3.549 30.2205 4.6485 31.32C5.748 32.4195 7.071 32.9685 8.619 32.9685H12.99C13.275 32.9685 13.4895 32.958 13.6335 32.9385C13.801 32.9049 13.9523 32.8156 14.0625 32.685C14.205 32.535 14.277 32.3175 14.277 32.0325L14.2665 30.705C14.2605 29.859 14.2575 29.19 14.2575 28.695L13.8075 28.773C13.5225 28.8255 13.1625 28.848 12.726 28.842C12.271 28.8336 11.8175 28.788 11.37 28.7055C10.8936 28.6175 10.4451 28.417 10.062 28.1205C9.66074 27.8169 9.36146 27.3984 9.204 26.9205L9.009 26.4705C8.84464 26.1155 8.63816 25.7816 8.394 25.476C8.115 25.1115 7.8315 24.8655 7.545 24.735L7.41 24.6375C7.31587 24.5701 7.23024 24.4915 7.155 24.4035C7.08314 24.3218 7.02398 24.2298 6.9795 24.1305C6.9405 24.039 6.9735 23.964 7.077 23.9055C7.182 23.8455 7.3695 23.817 7.644 23.817L8.034 23.877C8.2935 23.928 8.616 24.084 8.9985 24.3435C9.38559 24.6074 9.70894 24.9543 9.945 25.359C10.245 25.8915 10.605 26.298 11.028 26.5785C11.451 26.8575 11.877 26.9985 12.306 26.9985C12.735 26.9985 13.1055 26.9655 13.419 26.901C13.7222 26.8383 14.0168 26.7396 14.2965 26.607C14.4135 25.737 14.7315 25.065 15.252 24.597C14.5776 24.5309 13.9091 24.4135 13.2525 24.246C12.6117 24.07 11.9954 23.8145 11.418 23.4855C10.8139 23.1566 10.2803 22.7122 9.8475 22.1775C9.432 21.657 9.09 20.9745 8.823 20.13C8.5575 19.284 8.424 18.3075 8.424 17.202C8.424 15.6285 8.937 14.289 9.9645 13.182C9.4845 12 9.5295 10.6725 10.101 9.204C10.479 9.0855 11.0385 9.174 11.7795 9.4665C12.5205 9.759 13.0635 10.0095 13.4085 10.2165C13.7535 10.4265 14.0295 10.602 14.238 10.7445C15.4575 10.4051 16.7177 10.2345 17.9835 10.2375C19.272 10.2375 20.52 10.407 21.7305 10.7445L22.4715 10.2765C23.0415 9.93428 23.6427 9.64699 24.267 9.4185C24.957 9.1575 25.482 9.087 25.848 9.204C26.433 10.674 26.484 12 26.0025 13.1835C27.03 14.289 27.5445 15.6285 27.5445 17.2035C27.5445 18.309 27.411 19.2885 27.144 20.139C26.8785 20.991 26.5335 21.6735 26.1105 22.188C25.6701 22.7158 25.1343 23.156 24.531 23.4855C23.901 23.8365 23.289 24.09 22.6965 24.246C22.0399 24.4141 21.3715 24.5319 20.697 24.5985C21.372 25.1835 21.711 26.106 21.711 27.3675V32.0325C21.711 32.253 21.7425 32.4315 21.8085 32.568C21.8388 32.6338 21.8821 32.6928 21.9357 32.7415C21.9893 32.7902 22.0521 32.8276 22.1205 32.8515C22.2645 32.9025 22.3905 32.9355 22.5015 32.9475C22.6125 32.9625 22.7715 32.967 22.9785 32.967H27.3495C28.8975 32.967 30.2205 32.418 31.32 31.3185C32.418 30.2205 32.9685 28.896 32.9685 27.348V8.619C32.9685 7.071 32.418 5.748 31.3185 4.6485H31.32Z" fill="#E9E9E9"/>
</svg>
